inDegrees=no
DataType=double
version=3
OpenSimVersion=4.4-2022-10-11-798caa840
endheader
time	elv_angle	shoulder_elv	shoulder_rot	elbow_flexion	pro_sup	deviation	flexion
1.2010425717	0.0783617049	0.5607174779	0.0000000000	1.5914178281	0.0000000000	0.0000000000	0.0000000000
1.2052128584	0.0794416373	0.5612290248	0.0000000000	1.5917020208	0.0000000000	0.0000000000	0.0000000000
1.2093831451	0.0805273983	0.5617433327	0.0000000000	1.5919877474	0.0000000000	0.0000000000	0.0000000000
1.2135534318	0.0816189207	0.5622603696	0.0000000000	1.5922749901	0.0000000000	0.0000000000	0.0000000000
1.2177237185	0.0827161364	0.5627801034	0.0000000000	1.5925637311	0.0000000000	0.0000000000	0.0000000000
1.2218940052	0.0838189768	0.5633025014	0.0000000000	1.5928539523	0.0000000000	0.0000000000	0.0000000000
1.2260642919	0.0849273727	0.5638275311	0.0000000000	1.5931456354	0.0000000000	0.0000000000	0.0000000000
1.2302345786	0.0860412541	0.5643551591	0.0000000000	1.5934387621	0.0000000000	0.0000000000	0.0000000000
1.2344048653	0.0871605506	0.5648853522	0.0000000000	1.5937333138	0.0000000000	0.0000000000	0.0000000000
1.2385751520	0.0882851910	0.5654180766	0.0000000000	1.5940292718	0.0000000000	0.0000000000	0.0000000000
1.2427454387	0.0894151036	0.5659532983	0.0000000000	1.5943266172	0.0000000000	0.0000000000	0.0000000000
1.2469157255	0.0905502160	0.5664909832	0.0000000000	1.5946253310	0.0000000000	0.0000000000	0.0000000000
1.2510860122	0.0916904554	0.5670310966	0.0000000000	1.5949253940	0.0000000000	0.0000000000	0.0000000000
1.2552562989	0.0928357483	0.5675736038	0.0000000000	1.5952267869	0.0000000000	0.0000000000	0.0000000000
1.2594265856	0.0939860207	0.5681184696	0.0000000000	1.5955294901	0.0000000000	0.0000000000	0.0000000000
1.2635968723	0.0951411979	0.5686656588	0.0000000000	1.5958334841	0.0000000000	0.0000000000	0.0000000000
1.2677671590	0.0963012048	0.5692151358	0.0000000000	1.5961387491	0.0000000000	0.0000000000	0.0000000000
1.2719374457	0.0974659658	0.5697668647	0.0000000000	1.5964452652	0.0000000000	0.0000000000	0.0000000000
1.2761077324	0.0986354046	0.5703208094	0.0000000000	1.5967530122	0.0000000000	0.0000000000	0.0000000000
1.2802780191	0.0998094446	0.5708769336	0.0000000000	1.5970619701	0.0000000000	0.0000000000	0.0000000000
1.2844483058	0.1009880085	0.5714352007	0.0000000000	1.5973721185	0.0000000000	0.0000000000	0.0000000000
1.2886185925	0.1021710185	0.5719955739	0.0000000000	1.5976834369	0.0000000000	0.0000000000	0.0000000000
1.2927888792	0.1033583966	0.5725580161	0.0000000000	1.5979959049	0.0000000000	0.0000000000	0.0000000000
1.2969591659	0.1045500640	0.5731224901	0.0000000000	1.5983095015	0.0000000000	0.0000000000	0.0000000000
1.3011294526	0.1057459415	0.5736889584	0.0000000000	1.5986242061	0.0000000000	0.0000000000	0.0000000000
1.3052997394	0.1069459496	0.5742573833	0.0000000000	1.5989399977	0.0000000000	0.0000000000	0.0000000000
1.3094700261	0.1081500082	0.5748277268	0.0000000000	1.5992568553	0.0000000000	0.0000000000	0.0000000000
1.3136403128	0.1093580367	0.5753999509	0.0000000000	1.5995747575	0.0000000000	0.0000000000	0.0000000000
1.3178105995	0.1105699543	0.5759740171	0.0000000000	1.5998936832	0.0000000000	0.0000000000	0.0000000000
1.3219808862	0.1117856796	0.5765498870	0.0000000000	1.6002136109	0.0000000000	0.0000000000	0.0000000000
1.3261511729	0.1130051308	0.5771275218	0.0000000000	1.6005345191	0.0000000000	0.0000000000	0.0000000000
1.3303214596	0.1142282258	0.5777068826	0.0000000000	1.6008563862	0.0000000000	0.0000000000	0.0000000000
1.3344917463	0.1154548820	0.5782879302	0.0000000000	1.6011791905	0.0000000000	0.0000000000	0.0000000000
1.3386620330	0.1166850165	0.5788706255	0.0000000000	1.6015029101	0.0000000000	0.0000000000	0.0000000000
1.3428323197	0.1179185459	0.5794549289	0.0000000000	1.6018275231	0.0000000000	0.0000000000	0.0000000000
1.3470026064	0.1191553865	0.5800408008	0.0000000000	1.6021530075	0.0000000000	0.0000000000	0.0000000000
1.3511728931	0.1203954544	0.5806282014	0.0000000000	1.6024793411	0.0000000000	0.0000000000	0.0000000000
1.3553431798	0.1216386651	0.5812170907	0.0000000000	1.6028065018	0.0000000000	0.0000000000	0.0000000000
1.3595134666	0.1228849340	0.5818074285	0.0000000000	1.6031344673	0.0000000000	0.0000000000	0.0000000000
1.3636837533	0.1241341759	0.5823991747	0.0000000000	1.6034632152	0.0000000000	0.0000000000	0.0000000000
1.3678540400	0.1253863055	0.5829922887	0.0000000000	1.6037927230	0.0000000000	0.0000000000	0.0000000000
1.3720243267	0.1266412371	0.5835867300	0.0000000000	1.6041229681	0.0000000000	0.0000000000	0.0000000000
1.3761946134	0.1278988849	0.5841824579	0.0000000000	1.6044539281	0.0000000000	0.0000000000	0.0000000000
1.3803649001	0.1291591624	0.5847794315	0.0000000000	1.6047855801	0.0000000000	0.0000000000	0.0000000000
1.3845351868	0.1304219832	0.5853776097	0.0000000000	1.6051179013	0.0000000000	0.0000000000	0.0000000000
1.3887054735	0.1316872605	0.5859769516	0.0000000000	1.6054508690	0.0000000000	0.0000000000	0.0000000000
1.3928757602	0.1329549071	0.5865774158	0.0000000000	1.6057844603	0.0000000000	0.0000000000	0.0000000000
1.3970460469	0.1342248359	0.5871789610	0.0000000000	1.6061186520	0.0000000000	0.0000000000	0.0000000000
1.4012163336	0.1354969591	0.5877815457	0.0000000000	1.6064534213	0.0000000000	0.0000000000	0.0000000000
1.4053866203	0.1367711891	0.5883851283	0.0000000000	1.6067887450	0.0000000000	0.0000000000	0.0000000000
1.4095569070	0.1380474378	0.5889896672	0.0000000000	1.6071245999	0.0000000000	0.0000000000	0.0000000000
1.4137271937	0.1393256170	0.5895951205	0.0000000000	1.6074609629	0.0000000000	0.0000000000	0.0000000000
1.4178974805	0.1406056383	0.5902014464	0.0000000000	1.6077978106	0.0000000000	0.0000000000	0.0000000000
1.4220677672	0.1418874129	0.5908086028	0.0000000000	1.6081351197	0.0000000000	0.0000000000	0.0000000000
1.4262380539	0.1431708522	0.5914165477	0.0000000000	1.6084728669	0.0000000000	0.0000000000	0.0000000000
1.4304083406	0.1444558672	0.5920252390	0.0000000000	1.6088110287	0.0000000000	0.0000000000	0.0000000000
1.4345786273	0.1457423686	0.5926346344	0.0000000000	1.6091495817	0.0000000000	0.0000000000	0.0000000000
1.4387489140	0.1470302671	0.5932446916	0.0000000000	1.6094885024	0.0000000000	0.0000000000	0.0000000000
1.4429192007	0.1483194734	0.5938553683	0.0000000000	1.6098277672	0.0000000000	0.0000000000	0.0000000000
1.4470894874	0.1496098979	0.5944666220	0.0000000000	1.6101673525	0.0000000000	0.0000000000	0.0000000000
1.4512597741	0.1509014507	0.5950784101	0.0000000000	1.6105072349	0.0000000000	0.0000000000	0.0000000000
1.4554300608	0.1521940421	0.5956906903	0.0000000000	1.6108473905	0.0000000000	0.0000000000	0.0000000000
1.4596003475	0.1534875821	0.5963034198	0.0000000000	1.6111877958	0.0000000000	0.0000000000	0.0000000000
1.4637706342	0.1547819808	0.5969165560	0.0000000000	1.6115284270	0.0000000000	0.0000000000	0.0000000000
1.4679409209	0.1560771478	0.5975300562	0.0000000000	1.6118692604	0.0000000000	0.0000000000	0.0000000000
1.4721112076	0.1573729931	0.5981438776	0.0000000000	1.6122102724	0.0000000000	0.0000000000	0.0000000000
1.4762814944	0.1586694264	0.5987579776	0.0000000000	1.6125514390	0.0000000000	0.0000000000	0.0000000000
